<svg
  xmlns="http://www.w3.org/2000/svg"
  viewBox="0 0 24 24"
  fill="none"
  stroke="currentColor"
  stroke-width="1.8"
  stroke-linecap="round"
  stroke-linejoin="round"
>
  <path d="M6.5 8h11A4.5 4.5 0 0 1 22 12.5v3.2a2.8 2.8 0 0 1-4.9 1.8l-1.6-1.9a2 2 0 0 0-1.5-.7h-4a2 2 0 0 0-1.5.7l-1.6 1.9A2.8 2.8 0 0 1 2 15.7v-3.2A4.5 4.5 0 0 1 6.5 8Z"/>
  <path d="M8 11v3"/>
  <path d="M6.5 12.5h3"/>
  <circle cx="16.5" cy="11.5" r=".6" fill="currentColor" stroke="none"/>
  <circle cx="18.5" cy="13.5" r=".6" fill="currentColor" stroke="none"/>
</svg>
